<?xml version="1.0" encoding="utf-8"?>
<!-- Svg Vector Icons : http://www.onlinewebfonts.com/icon -->
<!DOCTYPE svg PUBLIC "-//W3C//DTD SVG 1.1//EN" "http://www.w3.org/Graphics/SVG/1.1/DTD/svg11.dtd">
<svg version="1.1" xmlns="http://www.w3.org/2000/svg" xmlns:xlink="http://www.w3.org/1999/xlink" x="0px" y="0px" viewBox="0 0 1000 1000" enable-background="new 0 0 1000 1000" xml:space="preserve">
<metadata> Svg Vector Icons : http://www.onlinewebfonts.com/icon </metadata>
<g><g transform="translate(0.000000,512.000000) scale(0.100000,-0.100000)"><path d="M6741,5004.2c-438.9-55.6-847.1-212.7-1245.7-479.1c-155.2-103.5-385.2-322-1523.5-1446.9C1769.9,901.2,750.3-133.6,610.4-331C390.1-645.3,231-1015.2,146.7-1413.8c-57.5-266.4-63.2-799.1-9.6-1063.6C277-3180.7,660.3-3801.6,1221.8-4223.2c184-139.9,586.4-346.9,812.5-419.7c845.1-270.2,1715.2-147.6,2458.7,346.9c216.5,141.8,314.3,235.7,2246,2152.1C8956.3,58,9178.6,282.2,9333.8,487.3c392.9,525.1,592.2,1169,563.4,1820.6c-59.4,1261-923.7,2320.7-2150.2,2631.2C7429,5019.6,7051.4,5044.5,6741,5004.2z M8691.9,3360c404.4-617.1,458-1427.7,138-2102.3c-74.7-155.2-224.2-379.4-329.6-496.3l-88.2-95.8l65.1,220.4c86.2,285.5,172.5,718.6,201.2,1006.1c47.9,494.4-34.5,1119.2-220.4,1676.8l-47.9,143.7l88.2-95.8C8546.2,3565,8634.4,3448.1,8691.9,3360z M3567.4,1267.3c910.3-185.9,1661.5-711,2224.9-1559.9c233.8-350.7,450.4-799.1,597.9-1226.5l44.1-134.2L5416.8-2659.4C4855.2-3213.3,4349.3-3702,4289.9-3746c-132.2-101.6-461.9-272.1-653.5-341.1c-482.9-172.5-1021.4-185.9-1446.9-34.5c-544.3,193.6-1031,628.6-1291.6,1149.8c-178.2,356.4-241.5,657.3-226.1,1088.5c9.6,333.4,57.5,551.9,184,833.6c157.1,356.4,220.4,431.2,1226.5,1445l931.4,935.2l182.1-11.5C3295.3,1311.3,3462,1288.3,3567.4,1267.3z"/></g></g>
</svg>